<svg xmlns="http://www.w3.org/2000/svg" viewBox="0 0 96 96">
	<defs>
		<linearGradient id="sky" x1="0" x2="1" y1="0" y2="1">
			<stop offset="0%" stop-color="#f5853f" />
			<stop offset="100%" stop-color="#1f8f83" />
		</linearGradient>
	</defs>
	<rect width="96" height="96" rx="28" fill="#fff7ec" />
	<circle cx="35" cy="33" r="15" fill="#ffd66b" />
	<path d="M26 62c0-8.3 6.7-15 15-15 4.9 0 9.3 2.3 12.1 5.9 1.9-1.2 4.2-1.9 6.7-1.9 7.1 0 12.9 5.6 13.2 12.6A10.8 10.8 0 0 1 62.4 75H36.7A10.7 10.7 0 0 1 26 64.3V62Z" fill="url(#sky)" />
	<path d="M42 78 34 92h10l6-10z" fill="#1f8f83" />
	<path d="M62 78 54 92h10l6-10z" fill="#135f61" />
</svg>
